<svg xmlns="http://www.w3.org/2000/svg" xmlns:xlink="http://www.w3.org/1999/xlink" viewBox="0 0 390.44 860.21"><defs><style>.a009d6a9-391f-4305-8254-c4e44d2c572d,.a4f25c02-a493-4ea8-acad-d65e852cb2fa,.bdbcf011-194f-498f-818f-65068de2b67f,.bdc314a6-65d7-46f4-869f-5a6df37d2f18,.e03c9da1-5eea-47fe-af48-2c91230d3e75,.e13c6872-f6bc-4a47-ab19-7f21547b4f75,.e90eaf46-b91c-41f8-8d4e-0f4299011811,.ec323ca1-5d06-483f-8837-20a24b8b8643{fill-rule:evenodd;}.e13c6872-f6bc-4a47-ab19-7f21547b4f75{fill:url(#f824bc63-dc17-4dbf-8fab-fef886bc4164);}.a009d6a9-391f-4305-8254-c4e44d2c572d{fill:url(#a12d6d5b-83b7-44de-8253-f5c373c04d2f);}.ec323ca1-5d06-483f-8837-20a24b8b8643{fill:url(#b0301582-89f7-454d-9519-09df2b4bf848);}.bdbcf011-194f-498f-818f-65068de2b67f{fill:url(#e8842ac3-a23b-4d26-8855-6d0a886aa7d4);}.e90eaf46-b91c-41f8-8d4e-0f4299011811{fill:url(#fb2717a0-8e4f-44ad-bd43-d8231d9c668f);}.bdc314a6-65d7-46f4-869f-5a6df37d2f18{fill:url(#e3dc2233-ec6c-4770-81ae-0cd7363f8847);}.a4f25c02-a493-4ea8-acad-d65e852cb2fa{fill:url(#b18bb51b-d586-4577-8e0b-014658f45182);}.e03c9da1-5eea-47fe-af48-2c91230d3e75{fill:url(#fcd58c0b-fb56-47d7-a948-a19f45b6b27c);}</style><linearGradient id="f824bc63-dc17-4dbf-8fab-fef886bc4164" x1="57.2" y1="845.39" x2="414.62" y2="174.25" gradientUnits="userSpaceOnUse"><stop offset="0" stop-color="#9d39ff"/><stop offset="0.33" stop-color="#ff00ab"/><stop offset="0.67" stop-color="#fcbf00"/><stop offset="1" stop-color="#a1c300"/></linearGradient><linearGradient id="a12d6d5b-83b7-44de-8253-f5c373c04d2f" x1="-12.59" y1="808.23" x2="344.84" y2="137.08" xlink:href="#f824bc63-dc17-4dbf-8fab-fef886bc4164"/><linearGradient id="b0301582-89f7-454d-9519-09df2b4bf848" x1="42.28" y1="837.45" x2="399.71" y2="166.31" xlink:href="#f824bc63-dc17-4dbf-8fab-fef886bc4164"/><linearGradient id="e8842ac3-a23b-4d26-8855-6d0a886aa7d4" x1="-67.63" y1="778.91" x2="289.8" y2="107.77" xlink:href="#f824bc63-dc17-4dbf-8fab-fef886bc4164"/><linearGradient id="fb2717a0-8e4f-44ad-bd43-d8231d9c668f" x1="46.85" y1="839.88" x2="404.28" y2="168.74" xlink:href="#f824bc63-dc17-4dbf-8fab-fef886bc4164"/><linearGradient id="e3dc2233-ec6c-4770-81ae-0cd7363f8847" x1="-79.28" y1="772.71" x2="278.15" y2="101.57" xlink:href="#f824bc63-dc17-4dbf-8fab-fef886bc4164"/><linearGradient id="b18bb51b-d586-4577-8e0b-014658f45182" x1="-83.08" y1="770.69" x2="274.35" y2="99.54" xlink:href="#f824bc63-dc17-4dbf-8fab-fef886bc4164"/><linearGradient id="fcd58c0b-fb56-47d7-a948-a19f45b6b27c" x1="-86.18" y1="769.03" x2="271.25" y2="97.89" xlink:href="#f824bc63-dc17-4dbf-8fab-fef886bc4164"/></defs><g id="edb0e947-0e6e-4de6-b4d8-49b34c44b560" data-name="Layer 2"><g id="aecb2c0a-176b-4390-bc0e-798da2b66fa3" data-name="Layer 1"><path class="e13c6872-f6bc-4a47-ab19-7f21547b4f75" d="M172.5,692.53c-10.15-19.45-21.22-36.58-29.92-53.25s-15.25-32.9-17.88-48.55c-2.69-15.47-1.35-30.5,3.1-42.81s11.91-21.89,20.48-27.64a54.16,54.16,0,0,1,25.16-9.3c15.19-1.34,23.42,3.87,24.38,2.09.4-.6-1-2.74-4.92-5.3s-10.45-5.42-19.52-6.16a59.06,59.06,0,0,0-32,7.12c-11.73,6.07-22.76,17.72-29.35,32.75s-9.4,33.2-7.13,52.08,9,37.64,17.82,55.74,19.55,35.72,28.71,54,16.57,37.52,17.85,57.54c1.45,20-4.3,38.24-16.62,51.93-12,13.72-28.75,22.7-45.23,24.87s-32.61-2.44-45.5-10.74a79.5,79.5,0,0,1-28.13-31.82c-5.49-11.91-7.64-24.3-6.16-34.28A33.13,33.13,0,0,1,32,748,22.32,22.32,0,0,1,40,740.32a24.09,24.09,0,0,1,15.76-3.07c3.81.7,5.93,1.84,6.52,1.14.5-.49-.51-3-4.81-5.66s-12.13-4.25-21.31-1a31.16,31.16,0,0,0-13.3,9.34,43.28,43.28,0,0,0-8.44,17c-3.36,13.09-2.05,28.31,3.65,43.68a94.47,94.47,0,0,0,32.52,41.68,91.11,91.11,0,0,0,27.06,13.31,83.56,83.56,0,0,0,32.35,3c22.27-2.28,44.16-13.38,60.37-31.27A87.71,87.71,0,0,0,189,796.6c4.09-12.1,5.18-24.85,4.4-37.32C191.76,734.26,182.58,711.87,172.5,692.53Z"/><path class="a009d6a9-391f-4305-8254-c4e44d2c572d" d="M78.63,651.51C99,671.34,116.7,690.6,126.84,711c5,10,8,20.1,8.36,29.36a43.39,43.39,0,0,1-6,24.18c-4,6.54-9.4,11-15,13.06a32.55,32.55,0,0,1-15.89,1.71c-9.09-1.43-13.48-5.71-14.89-4.5-.59.46-.42,2.25,1.33,4.86a25.67,25.67,0,0,0,10.77,8.58,37.75,37.75,0,0,0,22.13,2.38c9-1.57,18.56-7.34,25.48-16.22a58.81,58.81,0,0,0,12.07-33.9c.56-13-2.7-26.43-8.2-38.92-11-25.14-30.78-47.15-51.4-67.29s-39.79-38.44-52.45-57.93a114.15,114.15,0,0,1-14.1-28.93,81.89,81.89,0,0,1-3.64-27.24,73.28,73.28,0,0,1,11.68-38.44c5.49-8.12,10-12.05,9.06-13.62-.66-1.25-7.15-.11-16,7.39-8.69,7.42-18.72,22.33-21.67,43a91.18,91.18,0,0,0,1.25,34A123.84,123.84,0,0,0,24.25,588.1C37.78,611.31,58.34,631.67,78.63,651.51Z"/><path class="ec323ca1-5d06-483f-8837-20a24b8b8643" d="M215.08,558.07a127.66,127.66,0,0,1-22.71,8.84,113.57,113.57,0,0,1-14,2.91c-1.22.21-2.45.37-3.7.47l-2.89.3v0l-.1,0s-.27.1,0-.33a89.82,89.82,0,0,0,8.91-11,87.48,87.48,0,0,0,10.8-20.94c4.38-12.63,4-20.87,2.69-21.1-1.64-.35-4.11,7.07-10,17.83a116.13,116.13,0,0,1-12,17.78,99.22,99.22,0,0,1-8.58,9.3c-2.84,3-7.3,6.28-11.3,9.56l-13.63,10.19,17,.89a133.64,133.64,0,0,0,15.47-.09,17.16,17.16,0,0,0,1.87-.13l1.1-.13,2.1-.27q2.1-.23,4.14-.63a101.19,101.19,0,0,0,15.39-4,96.17,96.17,0,0,0,23.81-12.18c12.43-8.93,17.5-17.1,16.41-18.09C234.63,546,227.58,551.7,215.08,558.07Z"/><path class="bdbcf011-194f-498f-818f-65068de2b67f" d="M389.77,336.85c-2.55-23.7-12.91-47-29.21-65.74s-37.77-32.43-60.84-38.4a113.22,113.22,0,0,0-67.21,3.13,98,98,0,0,0-27.87,15.72,94.63,94.63,0,0,0-19.41,21.62,43.44,43.44,0,0,0-7.83-6.76,91.68,91.68,0,0,0-26.58-12.28,226.33,226.33,0,0,0,32.71-15.2c19.69-11.05,37-22.95,53.92-32.23,16.93-9.43,33.41-16.07,49.66-18.51,16.16-2.64,31.47-1.18,43.78,4a50.94,50.94,0,0,1,15.73,9.93A51.82,51.82,0,0,1,357,215.62a54.34,54.34,0,0,1,7,26.73,46.65,46.65,0,0,1-3.72,17.55c-1.7,3.89-2.77,6.13-2.11,6.74s2.84-.61,6.17-4.12,7.17-9.93,9-19.18,1.06-21.13-4.13-33.51c-.76-1.85-1.66-3.7-2.64-5.55a39.14,39.14,0,0,0,3.14-5.59,60.42,60.42,0,0,0,4.29-31.95C372.35,153,364.81,136.17,350,124.2a70.2,70.2,0,0,0-26.34-13.59A73.91,73.91,0,0,0,292,109.45c-21.3,3.78-38.37,14-52.59,23.53-13.06,9.07-23.9,17.59-33.56,24.3a59.72,59.72,0,0,0,3.81-16.95c.78-9.52-.44-19.47-2.72-29.09s-5.53-19.09-8.61-28.42c-1.53-4.66-3-9.32-4.32-14-.68-2.32-1.15-4.6-1.75-6.92-.35-1.21-.44-2.19-.7-3.52l-.7-3.79-.4-4.1a23.05,23.05,0,0,1,.17-5.47l.53-5.91.52-5.88c.21-2.06.25-3.65.65-6.24Q194.16,13.41,196,0L178.18,18c-6.3,6.43-12.42,12.58-18.36,18.89-3,3.12-5.84,6.39-8.66,9.56l-2.65,3.19-2.12,2.69c-2.78,3.61-5.43,7.24-7.8,11-9.68,14.75-15.12,30.94-15.75,44.48a69.35,69.35,0,0,0,.29,11.83,57.91,57.91,0,0,0-18.66-9.4,68.11,68.11,0,0,0-55.38,7.66C31,129.24,18.77,150.54,17,173.72a76.07,76.07,0,0,0,5.44,35.37,83,83,0,0,0,21.48,30.15,91.18,91.18,0,0,0,31.73,18.54,121.92,121.92,0,0,0-49.95,37.84C10,315.84,1.25,339.92.18,362.23A117.77,117.77,0,0,0,11.27,419c7.19,14.82,15.86,25,22.68,30.91s11.65,7.85,12.69,6.74c2.69-2.66-10.83-16.61-19.51-44A119.94,119.94,0,0,1,22,368.52a29.5,29.5,0,0,0,11.48-1.38,47.68,47.68,0,0,0,16.44-9.45,83.51,83.51,0,0,0,14.54-17.08c4.28-6.41,7.8-12.59,11.13-17.9A143.6,143.6,0,0,1,85,309.2c5.74-7.27,10.58-10.87,9.83-12.46-.56-1.43-7.47-.32-15.83,6.38a77,77,0,0,0-12.54,13.23c-4.12,5.38-8,11.47-12,17.52A114.21,114.21,0,0,1,42.3,349.56a57,57,0,0,1-12.18,9.73,49,49,0,0,1-7.56,3.6c2.18-17.61,9.7-36.2,22.23-52.36,13-16.43,29.64-28.42,46.61-34.67a118.79,118.79,0,0,1,48.24-7.09c21.32,1.37,36.07,7.12,43,8.63a88.66,88.66,0,0,0-12.41,48,76.06,76.06,0,0,0,14.24,41.39,73.24,73.24,0,0,0,24.12,21.7c7.83,4.26,14.55,6,19.13,6.52s7,0,7.17-.74c.44-1.94-8.87-3.91-21.14-13.59a72.8,72.8,0,0,1-17.94-21.17,64.86,64.86,0,0,1-8.52-34.24,73.6,73.6,0,0,1,13.95-40,76.11,76.11,0,0,1,38.69-28.4c16.35-5.55,35.53-6.19,53.71-1.22s35.38,16,48.59,31.31,21.7,34,24,52.65-1.34,37.51-8.66,53.59-18.16,29.76-30.69,39.3c-12.22,9.73-26.92,15.4-40.6,21.46s-26.64,12.34-36.46,20.94c-9.65,8.4-16.08,17.76-19.3,26.28a38.6,38.6,0,0,0-2.6,20.48c.79,4.67,2.33,6.78,3,6.63,2-.21.15-9.9,8-23,3.84-6.49,10.27-13.56,19.16-19.73,8.73-6.13,20.62-10.85,34.44-15.68,13.69-5,30.28-10,46.16-21.18,15.77-10.83,29.46-26.72,39-45.92S392.37,360.6,389.77,336.85ZM43.74,200.1a54.53,54.53,0,0,1-4.49-24.9c.74-16.91,9-32.39,20.91-40.65,12-8.54,27.48-10.68,39.93-7.87a41.67,41.67,0,0,1,27.55,19.52,51.49,51.49,0,0,1,7.27,25.67,31.71,31.71,0,0,0-4.42-9.29,27.63,27.63,0,0,0-12-9.78,27.23,27.23,0,0,0-17.79-1.11,29.74,29.74,0,0,0-15.48,10.63,34.52,34.52,0,0,0-6.94,16.44,35.09,35.09,0,0,0,19.18,35.89,27.16,27.16,0,0,0,16.7,2.4c3.9-.81,5.69-2.42,5.54-3.59-.21-2.57-8.07-3.29-15.55-9.73A25.64,25.64,0,0,1,96,190.15a20.25,20.25,0,0,1-.2-8.58,19.85,19.85,0,0,1,3.71-8.1c3.79-4.8,8.41-6.18,13.18-5,4.42,1,8.38,5.3,10.7,9.62s3.63,9,4.81,12.17a13.43,13.43,0,0,0,2.29,4.52c-.43,1.42-.59,2.33-.18,2.65.55.47,2.84-.8,5.84-4.56s6.59-10.17,8.12-19.39a57.28,57.28,0,0,0-4.69-33.57c-.74-1.57-1.57-3.15-2.5-4.72A72.65,72.65,0,0,1,138.78,110c2.53-10.78,8.11-22.55,17.37-34.49,2.27-3,4.8-6,7.47-9l2-2.27,1.05-1.13.51-.56.08-.06a1.38,1.38,0,0,1,.33-.09c.34,0,.39.12.26.45a.59.59,0,0,1-.07.16s0,0,0,.1c.25,1.25.49,2.89.87,4.2.72,2.75,1.36,5.56,2.17,8.18,1.59,5.29,3.33,10.29,5.08,15.09,3.51,9.57,7,18.28,9.47,26.42a85.77,85.77,0,0,1,4.22,22.55,46.12,46.12,0,0,1-3,18.48,52.46,52.46,0,0,1-11.8,17.59c-4,2-6.19,3.31-6,4.34,0,.21.26.4.56.56l-.25.2c-5.66,4.56-9.64,6.62-9.23,8.36.28,1.46,5.19,2.59,13.5,0a50.17,50.17,0,0,0,19.15-11.7A126,126,0,0,0,210,170c11.71-5.88,24.59-14.41,38.5-23,13.88-8.31,29.61-16.77,46.58-19.69a60.36,60.36,0,0,1,24.24.49,57.47,57.47,0,0,1,20.43,9.53,56.89,56.89,0,0,1,21.64,31.76,73.49,73.49,0,0,1,1.54,27.62c-.06.45-.11.85-.18,1.27a59.89,59.89,0,0,0-5-6.49,65.15,65.15,0,0,0-19.6-14.78c-15.29-7.82-34.34-10.59-53.56-8.41-19.33,1.92-39.11,9.14-57.5,18.69-18.58,9.47-36.34,21.12-54.9,31.15-18.36,9.88-38.33,18.2-58.77,20a75.76,75.76,0,0,1-29.17-2.85A68.77,68.77,0,0,1,59.7,221.53,60.91,60.91,0,0,1,43.74,200.1Z"/><path class="e90eaf46-b91c-41f8-8d4e-0f4299011811" d="M281.8,427.74c-11.48,12.43-18.79,20.34-17.64,21.63s10.22-4.33,23.56-15.49A171.48,171.48,0,0,0,309.39,412a118.56,118.56,0,0,0,19.43-33c4.85-12.91,6.82-26.41,5.46-38.6a68,68,0,0,0-10.72-30.14,49.76,49.76,0,0,0-15.24-15.07c-4.38-2.58-7.21-3.1-7.57-2.45-1.07,1.61,8.25,7.37,15.45,21.82a69.42,69.42,0,0,1,7,26.76c.6,10.36-1.38,22-5.67,33.41C308.77,397.81,293.06,415.25,281.8,427.74Z"/><path class="bdc314a6-65d7-46f4-869f-5a6df37d2f18" d="M133.74,392.69c2.48-5.49,4.06-9,4.68-9s.09,3.46-1.67,9.14a62.8,62.8,0,0,1-4.14,10,53.45,53.45,0,0,1-8.31,11.82,45.85,45.85,0,0,1-12.36,9.51,34.26,34.26,0,0,1-12,3.71,18.18,18.18,0,0,1-7.5-.61c-1.55-.54-2.16-1.14-2-1.36.39-.61,3.79.49,9.84-.78a35.74,35.74,0,0,0,10.22-3.92,45,45,0,0,0,10.55-8.46C127.65,405.72,131.2,398.12,133.74,392.69Z"/><path class="a4f25c02-a493-4ea8-acad-d65e852cb2fa" d="M108.27,397c5.86-2.27,11.13-3.9,15.46-6.14a65.5,65.5,0,0,0,11.09-7.09c6-4.74,9.16-8.56,10.15-7.92s-.67,5.61-6.23,12a48.68,48.68,0,0,1-11.42,9.48c-4.86,3-10.65,5-16.09,7.15S101.1,409,97.75,412.1a19.22,19.22,0,0,0-3.91,4.84,14,14,0,0,0-1.61,5,14.63,14.63,0,0,0,1.11,7.86c.83,1.79,1.63,2.83,1.3,3.31s-1.76.29-3.76-1.4a14.34,14.34,0,0,1-4.33-9.89,18.08,18.08,0,0,1,1.24-7.66,23.34,23.34,0,0,1,4.73-7.29C96.64,402.41,102.45,399.28,108.27,397Z"/><path class="e03c9da1-5eea-47fe-af48-2c91230d3e75" d="M115.29,403.79c2.85,3.9.06,10.77-6.22,15.35s-13.68,5.13-16.52,1.23S92.49,409.6,98.78,405,112.45,399.89,115.29,403.79Z"/></g></g></svg>