<?xml version="1.0" standalone="no"?>
<!DOCTYPE svg PUBLIC "-//W3C//DTD SVG 20010904//EN"
 "http://www.w3.org/TR/2001/REC-SVG-20010904/DTD/svg10.dtd">
<svg version="1.0" xmlns="http://www.w3.org/2000/svg"
 width="60.000000pt" height="60.000000pt" viewBox="0 0 60.000000 60.000000"
 preserveAspectRatio="xMidYMid meet">

<g transform="translate(0.000000,60.000000) scale(0.100000,-0.100000)"
fill="#000000" stroke="none">
<path d="M12 588 c-17 -17 -17 -559 0 -576 17 -17 499 -17 516 0 8 8 12 56 12
148 l0 136 30 29 c38 36 38 56 0 98 -26 30 -30 42 -30 94 0 33 -5 64 -12 71
-17 17 -499 17 -516 0z m506 -40 l3 -28 -250 0 -251 0 0 23 c0 13 3 27 7 31 4
3 115 5 247 4 l241 -3 3 -27z m2 -68 c0 -11 -6 -20 -13 -20 -7 0 -74 -62 -149
-137 -129 -132 -135 -140 -142 -187 -3 -28 -2 -54 2 -58 4 -4 30 -5 58 -2 45
6 56 14 147 103 l98 95 -3 -124 -3 -125 -245 0 -245 0 -3 238 -2 237 250 0
c243 0 250 -1 250 -20z m32 -67 c32 -30 35 -45 12 -64 -13 -11 -21 -7 -51 24
-31 30 -35 38 -24 51 19 22 31 20 63 -11z m-53 -57 c48 -50 30 -68 -20 -20
-34 33 -42 54 -20 54 4 0 22 -15 40 -34z m-84 -156 l-85 -85 -37 38 -38 37 85
85 84 85 38 -37 38 -37 -85 -86z m-141 -103 c-20 -4 -38 -6 -40 -4 -2 2 -1 20
3 41 l6 37 34 -33 34 -33 -37 -8z"/>
<path d="M40 550 c0 -5 7 -10 15 -10 8 0 15 5 15 10 0 6 -7 10 -15 10 -8 0
-15 -4 -15 -10z"/>
<path d="M90 550 c0 -5 7 -10 15 -10 8 0 15 5 15 10 0 6 -7 10 -15 10 -8 0
-15 -4 -15 -10z"/>
<path d="M140 550 c0 -5 7 -10 15 -10 8 0 15 5 15 10 0 6 -7 10 -15 10 -8 0
-15 -4 -15 -10z"/>
<path d="M420 550 c0 -5 18 -10 40 -10 22 0 40 5 40 10 0 6 -18 10 -40 10 -22
0 -40 -4 -40 -10z"/>
<path d="M60 380 c0 -6 60 -10 160 -10 100 0 160 4 160 10 0 6 -60 10 -160 10
-100 0 -160 -4 -160 -10z"/>
<path d="M60 320 c0 -6 50 -10 130 -10 80 0 130 4 130 10 0 6 -50 10 -130 10
-80 0 -130 -4 -130 -10z"/>
<path d="M60 260 c0 -6 38 -10 95 -10 57 0 95 4 95 10 0 6 -38 10 -95 10 -57
0 -95 -4 -95 -10z"/>
<path d="M60 200 c0 -6 32 -10 75 -10 43 0 75 4 75 10 0 6 -32 10 -75 10 -43
0 -75 -4 -75 -10z"/>
<path d="M60 140 c0 -6 30 -10 70 -10 40 0 70 4 70 10 0 6 -30 10 -70 10 -40
0 -70 -4 -70 -10z"/>
</g>
</svg>
